# 
# Wavefront OBJ file
# Converted by the DEEP Exploration Deep Exploration 5.5 5.5.4.2708 Release
# Right Hemisphere, LTD
# http://www.righthemisphere.com/
# 
mtllib sphere.mtl
# object Sphere #5
g Sphere__5
v 0.00000 0.00000 -16.66500
v 5.14970 0.00000 -15.84930
v 4.16620 3.02690 -15.84930
v 1.59130 4.89770 -15.84930
v -1.59130 4.89770 -15.84930
v -4.16620 3.02690 -15.84930
v -5.14970 0.00000 -15.84930
v -4.16620 -3.02690 -15.84930
v -1.59130 -4.89770 -15.84930
v 1.59130 -4.89770 -15.84930
v 4.16620 -3.02690 -15.84930
v 9.79540 0.00000 -13.48220
v 7.92460 5.75760 -13.48220
v 3.02690 9.31600 -13.48220
v -3.02690 9.31600 -13.48220
v -7.92460 5.75760 -13.48220
v -9.79540 0.00000 -13.48220
v -7.92460 -5.75760 -13.48220
v -3.02690 -9.31600 -13.48220
v 3.02690 -9.31600 -13.48220
v 7.92460 -5.75760 -13.48220
v 13.48220 0.00000 -9.79540
v 10.90730 7.92460 -9.79540
v 4.16620 12.82240 -9.79540
v -4.16620 12.82230 -9.79540
v -10.90730 7.92460 -9.79540
v -13.48220 0.00000 -9.79540
v -10.90730 -7.92460 -9.79540
v -4.16620 -12.82230 -9.79540
v 4.16620 -12.82230 -9.79540
v 10.90730 -7.92460 -9.79540
v 15.84930 0.00000 -5.14970
v 12.82240 9.31600 -5.14970
v 4.89770 15.07360 -5.14970
v -4.89770 15.07360 -5.14970
v -12.82240 9.31600 -5.14970
v -15.84930 0.00000 -5.14970
v -12.82230 -9.31600 -5.14970
v -4.89770 -15.07360 -5.14970
v 4.89770 -15.07360 -5.14970
v 12.82240 -9.31600 -5.14970
v 16.66500 0.00000 0.00000
v 13.48220 9.79540 0.00000
v 5.14970 15.84930 0.00000
v -5.14970 15.84930 0.00000
v -13.48220 9.79540 0.00000
v -16.66500 0.00000 0.00000
v -13.48220 -9.79540 0.00000
v -5.14970 -15.84930 0.00000
v 5.14970 -15.84930 0.00000
v 13.48220 -9.79540 0.00000
v 15.84930 0.00000 5.14970
v 12.82240 9.31600 5.14970
v 4.89770 15.07360 5.14970
v -4.89770 15.07360 5.14970
v -12.82240 9.31600 5.14970
v -15.84930 0.00000 5.14970
v -12.82230 -9.31600 5.14970
v -4.89770 -15.07360 5.14970
v 4.89770 -15.07360 5.14970
v 12.82240 -9.31600 5.14970
v 13.48220 0.00000 9.79540
v 10.90730 7.92460 9.79540
v 4.16620 12.82240 9.79540
v -4.16620 12.82230 9.79540
v -10.90730 7.92460 9.79540
v -13.48220 0.00000 9.79540
v -10.90730 -7.92460 9.79540
v -4.16620 -12.82230 9.79540
v 4.16620 -12.82230 9.79540
v 10.90730 -7.92460 9.79540
v 9.79540 0.00000 13.48220
v 7.92460 5.75760 13.48220
v 3.02690 9.31600 13.48220
v -3.02690 9.31600 13.48220
v -7.92460 5.75760 13.48220
v -9.79540 0.00000 13.48220
v -7.92460 -5.75760 13.48220
v -3.02690 -9.31600 13.48220
v 3.02690 -9.31600 13.48220
v 7.92460 -5.75760 13.48220
v 5.14970 0.00000 15.84930
v 4.16620 3.02690 15.84930
v 1.59130 4.89770 15.84930
v -1.59130 4.89770 15.84930
v -4.16620 3.02690 15.84930
v -5.14970 0.00000 15.84930
v -4.16620 -3.02690 15.84930
v -1.59130 -4.89770 15.84930
v 1.59130 -4.89770 15.84930
v 4.16620 -3.02690 15.84930
v 0.00000 0.00000 16.66500
# 92 verticies
vt 0.00000 1.00000
vt 0.10000 0.90000
vt 0.10000 1.00000
vt 0.00000 0.90000
vt 0.10000 0.80000
vt 0.00000 0.80000
vt 0.10000 0.70000
vt 0.00000 0.70000
vt 0.10000 0.60000
vt 0.00000 0.60000
vt 0.10000 0.50000
vt 0.00000 0.50000
vt 0.10000 0.40000
vt 0.00000 0.40000
vt 0.10000 0.30000
vt 0.00000 0.30000
vt 0.10000 0.20000
vt 0.00000 0.20000
vt 0.10000 0.10000
vt 0.00000 0.10000
vt 0.10000 -0.00000
vt 0.20000 0.90000
vt 0.20000 1.00000
vt 0.20000 0.80000
vt 0.20000 0.70000
vt 0.20000 0.60000
vt 0.20000 0.50000
vt 0.20000 0.40000
vt 0.20000 0.30000
vt 0.20000 0.20000
vt 0.20000 0.10000
vt 0.20000 -0.00000
vt 0.30000 0.90000
vt 0.30000 1.00000
vt 0.30000 0.80000
vt 0.30000 0.70000
vt 0.30000 0.60000
vt 0.30000 0.50000
vt 0.30000 0.40000
vt 0.30000 0.30000
vt 0.30000 0.20000
vt 0.30000 0.10000
vt 0.30000 -0.00000
vt 0.40000 0.90000
vt 0.40000 1.00000
vt 0.40000 0.80000
vt 0.40000 0.70000
vt 0.40000 0.60000
vt 0.40000 0.50000
vt 0.40000 0.40000
vt 0.40000 0.30000
vt 0.40000 0.20000
vt 0.40000 0.10000
vt 0.40000 -0.00000
vt 0.50000 0.90000
vt 0.50000 1.00000
vt 0.50000 0.80000
vt 0.50000 0.70000
vt 0.50000 0.60000
vt 0.50000 0.50000
vt 0.50000 0.40000
vt 0.50000 0.30000
vt 0.50000 0.20000
vt 0.50000 0.10000
vt 0.50000 -0.00000
vt 0.60000 0.90000
vt 0.60000 1.00000
vt 0.60000 0.80000
vt 0.60000 0.70000
vt 0.60000 0.60000
vt 0.60000 0.50000
vt 0.60000 0.40000
vt 0.60000 0.30000
vt 0.60000 0.20000
vt 0.60000 0.10000
vt 0.60000 -0.00000
vt 0.70000 0.90000
vt 0.70000 1.00000
vt 0.70000 0.80000
vt 0.70000 0.70000
vt 0.70000 0.60000
vt 0.70000 0.50000
vt 0.70000 0.40000
vt 0.70000 0.30000
vt 0.70000 0.20000
vt 0.70000 0.10000
vt 0.70000 -0.00000
vt 0.80000 0.90000
vt 0.80000 1.00000
vt 0.80000 0.80000
vt 0.80000 0.70000
vt 0.80000 0.60000
vt 0.80000 0.50000
vt 0.80000 0.40000
vt 0.80000 0.30000
vt 0.80000 0.20000
vt 0.80000 0.10000
vt 0.80000 -0.00000
vt 0.90000 0.90000
vt 0.90000 1.00000
vt 0.90000 0.80000
vt 0.90000 0.70000
vt 0.90000 0.60000
vt 0.90000 0.50000
vt 0.90000 0.40000
vt 0.90000 0.30000
vt 0.90000 0.20000
vt 0.90000 0.10000
vt 0.90000 -0.00000
vt 1.00000 0.90000
vt 1.00000 0.80000
vt 1.00000 0.70000
vt 1.00000 0.60000
vt 1.00000 0.50000
vt 1.00000 0.40000
vt 1.00000 0.30000
vt 1.00000 0.20000
vt 1.00000 0.10000
vt 1.00000 -0.00000
# 119 texture verticies
vn -0.00000 -0.00000 -1.00000
vn 0.25610 0.22281 -0.94062
vn 0.33815 0.02973 -0.94062
vn 0.07622 0.33079 -0.94062
vn -0.13277 0.31241 -0.94062
vn -0.29105 0.17471 -0.94062
vn -0.33815 -0.02973 -0.94062
vn -0.25610 -0.22281 -0.94062
vn -0.07622 -0.33079 -0.94062
vn 0.13277 -0.31241 -0.94062
vn 0.29105 -0.17471 -0.94062
vn 0.46683 0.35574 -0.80964
vn 0.58677 0.01340 -0.80964
vn 0.16858 0.56220 -0.80964
vn -0.19407 0.55392 -0.80964
vn -0.48259 0.33406 -0.80964
vn -0.58677 -0.01340 -0.80964
vn -0.46683 -0.35574 -0.80964
vn -0.16858 -0.56220 -0.80964
vn 0.19407 -0.55392 -0.80964
vn 0.48259 -0.33406 -0.80964
vn 0.64838 0.48275 -0.58869
vn 0.80830 0.00944 -0.58869
vn 0.24080 0.77166 -0.58869
vn -0.25877 0.76582 -0.58869
vn -0.65948 0.46747 -0.58869
vn -0.80830 -0.00945 -0.58869
vn -0.64838 -0.48275 -0.58869
vn -0.24080 -0.77166 -0.58869
vn 0.25876 -0.76582 -0.58869
vn 0.65948 -0.46747 -0.58869
vn 0.89307 0.29017 -0.34384
vn 0.92155 0.29943 -0.24716
vn 0.55195 0.75969 -0.34384
vn 0.56955 0.78392 -0.24716
vn -0.00000 0.93903 -0.34384
vn 0.00000 0.96898 -0.24715
vn -0.55194 0.75969 -0.34385
vn -0.56955 0.78392 -0.24715
vn -0.89307 0.29017 -0.34385
vn -0.92155 0.29943 -0.24716
vn -0.89307 -0.29018 -0.34384
vn -0.92155 -0.29943 -0.24716
vn -0.55195 -0.75969 -0.34384
vn -0.56955 -0.78392 -0.24716
vn 0.00000 -0.93903 -0.34385
vn 0.00000 -0.96898 -0.24716
vn 0.55194 -0.75969 -0.34385
vn 0.56955 -0.78392 -0.24715
vn 0.89307 -0.29017 -0.34385
vn 0.92155 -0.29943 -0.24716
vn 0.94986 0.30863 -0.05015
vn 0.94986 0.30863 0.05014
vn 0.58704 0.80800 -0.05014
vn 0.58704 0.80800 0.05015
vn 0.00000 0.99874 -0.05015
vn 0.00000 0.99874 0.05015
vn -0.58704 0.80800 -0.05015
vn -0.58704 0.80800 0.05014
vn -0.94986 0.30863 -0.05014
vn -0.94986 0.30863 0.05015
vn -0.94986 -0.30863 -0.05015
vn -0.94986 -0.30863 0.05015
vn -0.58705 -0.80800 -0.05015
vn -0.58705 -0.80800 0.05015
vn 0.00000 -0.99874 -0.05015
vn 0.00000 -0.99874 0.05015
vn 0.58704 -0.80800 -0.05015
vn 0.58704 -0.80800 0.05014
vn 0.94986 -0.30863 -0.05014
vn 0.94986 -0.30863 0.05015
vn 0.77209 0.55496 0.30968
vn 0.95083 -0.00485 0.30968
vn 0.29843 0.90280 0.30967
vn -0.28921 0.90579 0.30968
vn -0.76639 0.56281 0.30967
vn -0.95083 0.00485 0.30968
vn -0.77209 -0.55496 0.30968
vn -0.29844 -0.90279 0.30968
vn 0.28921 -0.90579 0.30968
vn 0.76639 -0.56281 0.30967
vn 0.65948 0.46746 0.58869
vn 0.80830 -0.00944 0.58869
vn 0.25876 0.76582 0.58869
vn -0.24080 0.77166 0.58869
vn -0.64838 0.48275 0.58869
vn -0.80830 0.00944 0.58869
vn -0.65948 -0.46747 0.58869
vn -0.25876 -0.76582 0.58869
vn 0.24080 -0.77166 0.58869
vn 0.64838 -0.48275 0.58869
vn 0.48259 0.33406 0.80964
vn 0.58677 -0.01340 0.80964
vn 0.19407 0.55391 0.80964
vn -0.16858 0.56220 0.80964
vn -0.46683 0.35574 0.80964
vn -0.58677 0.01340 0.80964
vn -0.48259 -0.33406 0.80964
vn -0.19407 -0.55392 0.80964
vn 0.16858 -0.56220 0.80964
vn 0.46683 -0.35574 0.80964
vn 0.29105 0.17471 0.94062
vn 0.33815 -0.02973 0.94062
vn 0.13277 0.31241 0.94062
vn -0.07622 0.33079 0.94062
vn -0.25610 0.22281 0.94062
vn -0.33815 0.02973 0.94062
vn -0.29105 -0.17471 0.94062
vn -0.13277 -0.31241 0.94062
vn 0.07622 -0.33079 0.94062
vn 0.25610 -0.22281 0.94062
vn -0.00000 -0.00000 1.00000
# 112 normals
usemtl Explorer_Default
f  1/1/1 3/2/2 2/3/3
f  1/4/1 4/5/4 3/2/2
f  1/6/1 5/7/5 4/5/4
f  1/8/1 6/9/6 5/7/5
f  1/10/1 7/11/7 6/9/6
f  1/12/1 8/13/8 7/11/7
f  1/14/1 9/15/9 8/13/8
f  1/16/1 10/17/10 9/15/9
f  1/18/1 11/19/11 10/17/10
f  1/20/1 2/21/3 11/19/11
f  2/3/3 3/2/2 13/22/12
f  2/3/3 13/22/12 12/23/13
f  3/2/2 4/5/4 14/24/14
f  3/2/2 14/24/14 13/22/12
f  4/5/4 5/7/5 15/25/15
f  4/5/4 15/25/15 14/24/14
f  5/7/5 6/9/6 16/26/16
f  5/7/5 16/26/16 15/25/15
f  6/9/6 7/11/7 17/27/17
f  6/9/6 17/27/17 16/26/16
f  7/11/7 8/13/8 18/28/18
f  7/11/7 18/28/18 17/27/17
f  8/13/8 9/15/9 19/29/19
f  8/13/8 19/29/19 18/28/18
f  9/15/9 10/17/10 20/30/20
f  9/15/9 20/30/20 19/29/19
f  10/17/10 11/19/11 21/31/21
f  10/17/10 21/31/21 20/30/20
f  11/19/11 2/21/3 12/32/13
f  11/19/11 12/32/13 21/31/21
f  12/23/13 13/22/12 23/33/22
f  12/23/13 23/33/22 22/34/23
f  13/22/12 14/24/14 24/35/24
f  13/22/12 24/35/24 23/33/22
f  14/24/14 15/25/15 25/36/25
f  14/24/14 25/36/25 24/35/24
f  15/25/15 16/26/16 26/37/26
f  15/25/15 26/37/26 25/36/25
f  16/26/16 17/27/17 27/38/27
f  16/26/16 27/38/27 26/37/26
f  17/27/17 18/28/18 28/39/28
f  17/27/17 28/39/28 27/38/27
f  18/28/18 19/29/19 29/40/29
f  18/28/18 29/40/29 28/39/28
f  19/29/19 20/30/20 30/41/30
f  19/29/19 30/41/30 29/40/29
f  20/30/20 21/31/21 31/42/31
f  20/30/20 31/42/31 30/41/30
f  21/31/21 12/32/13 22/43/23
f  21/31/21 22/43/23 31/42/31
f  22/34/23 23/33/22 33/44/32
f  22/34/23 33/44/32 32/45/33
f  23/33/22 24/35/24 34/46/34
f  23/33/22 34/46/34 33/44/35
f  24/35/24 25/36/25 35/47/36
f  24/35/24 35/47/36 34/46/37
f  25/36/25 26/37/26 36/48/38
f  25/36/25 36/48/38 35/47/39
f  26/37/26 27/38/27 37/49/40
f  26/37/26 37/49/40 36/48/41
f  27/38/27 28/39/28 38/50/42
f  27/38/27 38/50/42 37/49/43
f  28/39/28 29/40/29 39/51/44
f  28/39/28 39/51/44 38/50/45
f  29/40/29 30/41/30 40/52/46
f  29/40/29 40/52/46 39/51/47
f  30/41/30 31/42/31 41/53/48
f  30/41/30 41/53/48 40/52/49
f  31/42/31 22/43/23 32/54/50
f  31/42/31 32/54/50 41/53/51
f  32/45/33 33/44/32 43/55/52
f  32/45/33 43/55/52 42/56/53
f  33/44/35 34/46/34 44/57/54
f  33/44/35 44/57/54 43/55/55
f  34/46/37 35/47/36 45/58/56
f  34/46/37 45/58/56 44/57/57
f  35/47/39 36/48/38 46/59/58
f  35/47/39 46/59/58 45/58/59
f  36/48/41 37/49/40 47/60/60
f  36/48/41 47/60/60 46/59/61
f  37/49/43 38/50/42 48/61/62
f  37/49/43 48/61/62 47/60/63
f  38/50/45 39/51/44 49/62/64
f  38/50/45 49/62/64 48/61/65
f  39/51/47 40/52/46 50/63/66
f  39/51/47 50/63/66 49/62/67
f  40/52/49 41/53/48 51/64/68
f  40/52/49 51/64/68 50/63/69
f  41/53/51 32/54/50 42/65/70
f  41/53/51 42/65/70 51/64/71
f  42/56/53 43/55/52 53/66/72
f  42/56/53 53/66/72 52/67/73
f  43/55/55 44/57/54 54/68/74
f  43/55/55 54/68/74 53/66/72
f  44/57/57 45/58/56 55/69/75
f  44/57/57 55/69/75 54/68/74
f  45/58/59 46/59/58 56/70/76
f  45/58/59 56/70/76 55/69/75
f  46/59/61 47/60/60 57/71/77
f  46/59/61 57/71/77 56/70/76
f  47/60/63 48/61/62 58/72/78
f  47/60/63 58/72/78 57/71/77
f  48/61/65 49/62/64 59/73/79
f  48/61/65 59/73/79 58/72/78
f  49/62/67 50/63/66 60/74/80
f  49/62/67 60/74/80 59/73/79
f  50/63/69 51/64/68 61/75/81
f  50/63/69 61/75/81 60/74/80
f  51/64/71 42/65/70 52/76/73
f  51/64/71 52/76/73 61/75/81
f  52/67/73 53/66/72 63/77/82
f  52/67/73 63/77/82 62/78/83
f  53/66/72 54/68/74 64/79/84
f  53/66/72 64/79/84 63/77/82
f  54/68/74 55/69/75 65/80/85
f  54/68/74 65/80/85 64/79/84
f  55/69/75 56/70/76 66/81/86
f  55/69/75 66/81/86 65/80/85
f  56/70/76 57/71/77 67/82/87
f  56/70/76 67/82/87 66/81/86
f  57/71/77 58/72/78 68/83/88
f  57/71/77 68/83/88 67/82/87
f  58/72/78 59/73/79 69/84/89
f  58/72/78 69/84/89 68/83/88
f  59/73/79 60/74/80 70/85/90
f  59/73/79 70/85/90 69/84/89
f  60/74/80 61/75/81 71/86/91
f  60/74/80 71/86/91 70/85/90
f  61/75/81 52/76/73 62/87/83
f  61/75/81 62/87/83 71/86/91
f  62/78/83 63/77/82 73/88/92
f  62/78/83 73/88/92 72/89/93
f  63/77/82 64/79/84 74/90/94
f  63/77/82 74/90/94 73/88/92
f  64/79/84 65/80/85 75/91/95
f  64/79/84 75/91/95 74/90/94
f  65/80/85 66/81/86 76/92/96
f  65/80/85 76/92/96 75/91/95
f  66/81/86 67/82/87 77/93/97
f  66/81/86 77/93/97 76/92/96
f  67/82/87 68/83/88 78/94/98
f  67/82/87 78/94/98 77/93/97
f  68/83/88 69/84/89 79/95/99
f  68/83/88 79/95/99 78/94/98
f  69/84/89 70/85/90 80/96/100
f  69/84/89 80/96/100 79/95/99
f  70/85/90 71/86/91 81/97/101
f  70/85/90 81/97/101 80/96/100
f  71/86/91 62/87/83 72/98/93
f  71/86/91 72/98/93 81/97/101
f  72/89/93 73/88/92 83/99/102
f  72/89/93 83/99/102 82/100/103
f  73/88/92 74/90/94 84/101/104
f  73/88/92 84/101/104 83/99/102
f  74/90/94 75/91/95 85/102/105
f  74/90/94 85/102/105 84/101/104
f  75/91/95 76/92/96 86/103/106
f  75/91/95 86/103/106 85/102/105
f  76/92/96 77/93/97 87/104/107
f  76/92/96 87/104/107 86/103/106
f  77/93/97 78/94/98 88/105/108
f  77/93/97 88/105/108 87/104/107
f  78/94/98 79/95/99 89/106/109
f  78/94/98 89/106/109 88/105/108
f  79/95/99 80/96/100 90/107/110
f  79/95/99 90/107/110 89/106/109
f  80/96/100 81/97/101 91/108/111
f  80/96/100 91/108/111 90/107/110
f  81/97/101 72/98/93 82/109/103
f  81/97/101 82/109/103 91/108/111
f  82/100/103 83/99/102 92/110/112
f  83/99/102 84/101/104 92/111/112
f  84/101/104 85/102/105 92/112/112
f  85/102/105 86/103/106 92/113/112
f  86/103/106 87/104/107 92/114/112
f  87/104/107 88/105/108 92/115/112
f  88/105/108 89/106/109 92/116/112
f  89/106/109 90/107/110 92/117/112
f  90/107/110 91/108/111 92/118/112
f  91/108/111 82/109/103 92/119/112
